<svg version="1.2" xmlns="http://www.w3.org/2000/svg" viewBox="0 0 800 512" width="1200" height="768">
	<title>404-svg</title>
	<style>
		.s0 { fill: #f4f4f4 } 
	</style>
	<g id="Layer">
	</g>
	<g id="Layer">
		<path id="Layer" class="s0" d="m349 274h3 3v6 6h9.4c5.2 0 10.1 0.3 11 0.6 1.9 0.7 2.1 4.5 0.4 6.2l-1.2 1.2h-9.8-9.8v6.5 6.4l10.8 0.3 10.7 0.3 0.3 2.3c0.2 1.3-0.2 3-0.8 3.8l-1.2 1.4h-9.9-9.9v5.5 5.5h-3-3v-1.5-1.5h-14.5-14.6l-2.4-2.5-2.5-2.4v-3.6-3.5h-6.2c-3.5 0-6.8-0.4-7.5-0.8-0.6-0.4-1.6-2-2.2-3.5l-1.1-2.7h-149-149v-4-4h148.9 148.9l2.1-3.5 2-3.5h6.6 6.5v-3.2-3.2l2.2-2.3 2.1-2.3h14.9 14.8v-2z"/>
		<path id="Layer" class="s0" d="m442.2 274h2.8v2 2h14.3 14.3l2.2 1.6 2.2 1.5 0.6 4 0.7 3.9h5.8 5.8l2.1 2.2c1.1 1.2 2 3 2 4v1.8h152.5 152.5v4 4h-152.5-152.5v1.2c0 0.6-0.7 2-1.7 3l-1.6 1.8h-6.2-6.2l-0.7 3.9-0.6 4-2.6 2-2.7 2.1h-13.8-13.9v1.5 1.5h-3.5-3.5v-25.3c0-14 0.3-25.7 0.7-26 0.3-0.4 1.9-0.7 3.5-0.7z"/>
	</g>
	<g id="Layer">
	</g>
	<g id="Layer">
	</g>
	<g id="Layer">
	</g>
	<g id="Layer">
	</g>
	<g id="Layer">
	</g>
	<g id="Layer">
	</g>
	<g id="Layer">
	</g>
	<g id="Layer">
	</g>
	<g id="Layer">
	</g>
	<g id="Layer">
	</g>
	<g id="Layer">
	</g>
	<g id="Layer">
	</g>
	<g id="Layer">
	</g>
	<g id="Layer">
	</g>
	<g id="Layer">
	</g>
	<g id="Layer">
	</g>
	<g id="Layer">
	</g>
	<g id="Layer">
	</g>
	<g id="Layer">
	</g>
	<g id="Layer">
	</g>
	<g id="Layer">
	</g>
	<g id="Layer">
	</g>
	<g id="Layer">
	</g>
</svg>