<?xml version="1.0" encoding="UTF-8" standalone="no"?>
<svg
   version="1.0"
   width="340.19476pt"
   height="653.96826pt"
   viewBox="0 0 340.19476 653.96826"
   preserveAspectRatio="xMidYMid"
   id="svg132"
   sodipodi:docname="posts-_1_.svg"
   inkscape:version="1.2.1 (0f2f062aeb, 2022-09-21, custom)"
   xmlns:inkscape="http://www.inkscape.org/namespaces/inkscape"
   xmlns:sodipodi="http://sodipodi.sourceforge.net/DTD/sodipodi-0.dtd"
   xmlns="http://www.w3.org/2000/svg"
   xmlns:svg="http://www.w3.org/2000/svg">
  <defs
     id="defs136" />
  <sodipodi:namedview
     id="namedview134"
     pagecolor="#505050"
     bordercolor="#eeeeee"
     borderopacity="1"
     inkscape:showpageshadow="0"
     inkscape:pageopacity="0"
     inkscape:pagecheckerboard="0"
     inkscape:deskcolor="#505050"
     inkscape:document-units="pt"
     showgrid="false"
     inkscape:zoom="0.6121735"
     inkscape:cx="387.14515"
     inkscape:cy="410.83124"
     inkscape:window-width="1846"
     inkscape:window-height="1016"
     inkscape:window-x="827"
     inkscape:window-y="1107"
     inkscape:window-maximized="1"
     inkscape:current-layer="svg132"
     showguides="false" />
  <g
     transform="matrix(0.1,0,0,-0.24459109,35.810746,654.88533)"
     fill="#000000"
     stroke="none"
     id="g130"
     style="fill:#ff1616;fill-opacity:1;stroke-width:0.958259">
    <path
       d="m 2320,2664 c 24,-4 30,-10 30,-32 0,-15 3,-37 6,-49 l 6,-23 -353,1 c -195,1 -345,4 -334,6 11,3 119,20 240,38 121,18 211,33 199,34 -11,1 -148,-17 -305,-39 l -284,-40 -670,-2 -670,-3 570,-2 c 313,-2 573,-7 577,-11 7,-7 -516,-86 -697,-106 -113,-13 -605,-92 -605,-98 0,-3 8,-4 17,-2 73,15 743,105 765,102 15,-3 29,-1 30,3 2,5 159,31 349,59 l 346,50 h 411 c 323,0 412,-3 412,-12 0,-10 2,-10 8,-1 4,6 23,13 42,16 l 35,4 -37,1 c -39,2 -40,4 -51,92 -1,9 -15,16 -35,18 -32,2 -32,2 -2,-4 z"
       id="path18"
       style="fill:#ff1616;fill-opacity:1;stroke-width:0.958259" />
    <path
       d="m 2223,2653 c 9,-2 25,-2 35,0 9,3 1,5 -18,5 -19,0 -27,-2 -17,-5 z"
       id="path20"
       style="fill:#ff1616;fill-opacity:1;stroke-width:0.958259" />
    <path
       d="m 2153,2643 c 9,-2 25,-2 35,0 9,3 1,5 -18,5 -19,0 -27,-2 -17,-5 z"
       id="path22"
       style="fill:#ff1616;fill-opacity:1;stroke-width:0.958259" />
    <path
       d="m 2483,2553 37,-4 -1,-502 -1,-502 -36,245 c -20,135 -38,238 -39,230 -2,-8 15,-141 37,-294 l 40,-279 V 889 331 l -22,-4 -23,-4 23,-2 c 21,-1 22,-4 22,-111 V 100 H 1355 l -1165,1 v 1101 c 0,606 -2,1099 -5,1096 -6,-6 -7,-2199 -1,-2205 2,-2 133,-4 292,-4 189,0 282,-4 269,-10 -15,-7 -13,-8 10,-2 17,3 423,8 903,10 l 872,4 v 122 c 0,67 0,325 0,572 0,277 4,456 10,465 7,11 10,7 11,-20 0,-19 3,-29 6,-23 2,7 -1,43 -8,80 -9,48 -14,250 -18,668 l -6,600 -40,1 -40,1 z"
       id="path24"
       style="fill:#ff1616;fill-opacity:1;stroke-width:0.958259" />
    <path
       d="m 2372,2490 c 0,-19 2,-27 5,-17 2,9 2,25 0,35 -3,9 -5,1 -5,-18 z"
       id="path26"
       style="fill:#ff1616;fill-opacity:1;stroke-width:0.958259" />
    <path
       d="m 2382,2420 c 0,-19 2,-27 5,-17 2,9 2,25 0,35 -3,9 -5,1 -5,-18 z"
       id="path28"
       style="fill:#ff1616;fill-opacity:1;stroke-width:0.958259" />
    <path
       d="m 213,2433 c 15,-2 37,-2 50,0 12,2 0,4 -28,4 -27,0 -38,-2 -22,-4 z"
       id="path30"
       style="fill:#ff1616;fill-opacity:1;stroke-width:0.958259" />
    <path
       d="m 398,2433 c 23,-2 61,-2 85,0 23,2 4,4 -43,4 -47,0 -66,-2 -42,-4 z"
       id="path32"
       style="fill:#ff1616;fill-opacity:1;stroke-width:0.958259" />
    <path
       d="m 898,2433 c 12,-2 30,-2 40,0 9,3 -1,5 -23,4 -22,0 -30,-2 -17,-4 z"
       id="path34"
       style="fill:#ff1616;fill-opacity:1;stroke-width:0.958259" />
    <path
       d="m 1323,2433 c 9,-2 23,-2 30,0 6,3 -1,5 -18,5 -16,0 -22,-2 -12,-5 z"
       id="path36"
       style="fill:#ff1616;fill-opacity:1;stroke-width:0.958259" />
    <path
       d="m 2392,2350 c 0,-19 2,-27 5,-17 2,9 2,25 0,35 -3,9 -5,1 -5,-18 z"
       id="path38"
       style="fill:#ff1616;fill-opacity:1;stroke-width:0.958259" />
    <path
       d="m 2402,2280 c 0,-19 2,-27 5,-17 2,9 2,25 0,35 -3,9 -5,1 -5,-18 z"
       id="path40"
       style="fill:#ff1616;fill-opacity:1;stroke-width:0.958259" />
    <path
       d="m 2412,2210 c 0,-19 2,-27 5,-17 2,9 2,25 0,35 -3,9 -5,1 -5,-18 z"
       id="path42"
       style="fill:#ff1616;fill-opacity:1;stroke-width:0.958259" />
    <path
       d="m 2422,2140 c 0,-19 2,-27 5,-17 2,9 2,25 0,35 -3,9 -5,1 -5,-18 z"
       id="path44"
       style="fill:#ff1616;fill-opacity:1;stroke-width:0.958259" />
    <path
       d="m 2432,2070 c 0,-19 2,-27 5,-17 2,9 2,25 0,35 -3,9 -5,1 -5,-18 z"
       id="path46"
       style="fill:#ff1616;fill-opacity:1;stroke-width:0.958259" />
    <path
       d="m 2562,1160 c 0,-19 2,-27 5,-17 2,9 2,25 0,35 -3,9 -5,1 -5,-18 z"
       id="path48"
       style="fill:#ff1616;fill-opacity:1;stroke-width:0.958259" />
    <path
       d="m 2572,1090 c 0,-19 2,-27 5,-17 2,9 2,25 0,35 -3,9 -5,1 -5,-18 z"
       id="path50"
       style="fill:#ff1616;fill-opacity:1;stroke-width:0.958259" />
    <path
       d="m 2582,1020 c 0,-19 2,-27 5,-17 2,9 2,25 0,35 -3,9 -5,1 -5,-18 z"
       id="path52"
       style="fill:#ff1616;fill-opacity:1;stroke-width:0.958259" />
    <path
       d="m 2592,950 c 0,-19 2,-27 5,-17 2,9 2,25 0,35 -3,9 -5,1 -5,-18 z"
       id="path54"
       style="fill:#ff1616;fill-opacity:1;stroke-width:0.958259" />
    <path
       d="m 2602,880 c 0,-19 2,-27 5,-17 2,9 2,25 0,35 -3,9 -5,1 -5,-18 z"
       id="path56"
       style="fill:#ff1616;fill-opacity:1;stroke-width:0.958259" />
    <path
       d="m 2612,810 c 0,-19 2,-27 5,-17 2,9 2,25 0,35 -3,9 -5,1 -5,-18 z"
       id="path58"
       style="fill:#ff1616;fill-opacity:1;stroke-width:0.958259" />
    <path
       d="m 251,764 c 0,-11 3,-14 6,-6 3,7 2,16 -1,19 -3,4 -6,-2 -5,-13 z"
       id="path60"
       style="fill:#ff1616;fill-opacity:1;stroke-width:0.958259" />
    <path
       d="m 2622,745 c 0,-16 2,-22 5,-12 2,9 2,23 0,30 -3,6 -5,-1 -5,-18 z"
       id="path62"
       style="fill:#ff1616;fill-opacity:1;stroke-width:0.958259" />
    <path
       d="m 262,690 c 0,-14 2,-19 5,-12 2,6 2,18 0,25 -3,6 -5,1 -5,-13 z"
       id="path64"
       style="fill:#ff1616;fill-opacity:1;stroke-width:0.958259" />
    <path
       d="m 2632,675 c 0,-16 2,-22 5,-12 2,9 2,23 0,30 -3,6 -5,-1 -5,-18 z"
       id="path66"
       style="fill:#ff1616;fill-opacity:1;stroke-width:0.958259" />
    <path
       d="m 272,620 c 0,-14 2,-19 5,-12 2,6 2,18 0,25 -3,6 -5,1 -5,-13 z"
       id="path68"
       style="fill:#ff1616;fill-opacity:1;stroke-width:0.958259" />
    <path
       d="m 2642,600 c 0,-14 2,-19 5,-12 2,6 2,18 0,25 -3,6 -5,1 -5,-13 z"
       id="path70"
       style="fill:#ff1616;fill-opacity:1;stroke-width:0.958259" />
    <path
       d="m 282,550 c 0,-14 2,-19 5,-12 2,6 2,18 0,25 -3,6 -5,1 -5,-13 z"
       id="path72"
       style="fill:#ff1616;fill-opacity:1;stroke-width:0.958259" />
    <path
       d="m 2652,530 c 0,-14 2,-19 5,-12 2,6 2,18 0,25 -3,6 -5,1 -5,-13 z"
       id="path74"
       style="fill:#ff1616;fill-opacity:1;stroke-width:0.958259" />
    <path
       d="m 292,480 c 0,-14 2,-19 5,-12 2,6 2,18 0,25 -3,6 -5,1 -5,-13 z"
       id="path76"
       style="fill:#ff1616;fill-opacity:1;stroke-width:0.958259" />
    <path
       d="m 2662,460 c 0,-14 2,-19 5,-12 2,6 2,18 0,25 -3,6 -5,1 -5,-13 z"
       id="path78"
       style="fill:#ff1616;fill-opacity:1;stroke-width:0.958259" />
    <path
       d="m 302,410 c 0,-14 2,-19 5,-12 2,6 2,18 0,25 -3,6 -5,1 -5,-13 z"
       id="path80"
       style="fill:#ff1616;fill-opacity:1;stroke-width:0.958259" />
    <path
       d="m 2671,384 c 0,-11 3,-14 6,-6 3,7 2,16 -1,19 -3,4 -6,-2 -5,-13 z"
       id="path82"
       style="fill:#ff1616;fill-opacity:1;stroke-width:0.958259" />
    <path
       d="m 312,340 c 0,-14 2,-19 5,-12 2,6 2,18 0,25 -3,6 -5,1 -5,-13 z"
       id="path84"
       style="fill:#ff1616;fill-opacity:1;stroke-width:0.958259" />
    <path
       d="m 2613,343 c 9,-2 25,-2 35,0 9,3 1,5 -18,5 -19,0 -27,-2 -17,-5 z"
       id="path86"
       style="fill:#ff1616;fill-opacity:1;stroke-width:0.958259" />
    <path
       d="m 2558,333 c 6,-2 18,-2 25,0 6,3 1,5 -13,5 -14,0 -19,-2 -12,-5 z"
       id="path88"
       style="fill:#ff1616;fill-opacity:1;stroke-width:0.958259" />
    <path
       d="m 2418,313 c 6,-2 18,-2 25,0 6,3 1,5 -13,5 -14,0 -19,-2 -12,-5 z"
       id="path90"
       style="fill:#ff1616;fill-opacity:1;stroke-width:0.958259" />
    <path
       d="m 2348,303 c 6,-2 18,-2 25,0 6,3 1,5 -13,5 -14,0 -19,-2 -12,-5 z"
       id="path92"
       style="fill:#ff1616;fill-opacity:1;stroke-width:0.958259" />
    <path
       d="m 2278,293 c 6,-2 18,-2 25,0 6,3 1,5 -13,5 -14,0 -19,-2 -12,-5 z"
       id="path94"
       style="fill:#ff1616;fill-opacity:1;stroke-width:0.958259" />
    <path
       d="m 322,270 c 0,-14 2,-19 5,-12 2,6 2,18 0,25 -3,6 -5,1 -5,-13 z"
       id="path96"
       style="fill:#ff1616;fill-opacity:1;stroke-width:0.958259" />
    <path
       d="m 2203,283 c 9,-2 25,-2 35,0 9,3 1,5 -18,5 -19,0 -27,-2 -17,-5 z"
       id="path98"
       style="fill:#ff1616;fill-opacity:1;stroke-width:0.958259" />
    <path
       d="m 1905,245 c -121,-19 -256,-34 -300,-35 -60,-1 -74,-4 -57,-10 24,-10 190,2 272,20 25,5 113,19 195,30 83,12 155,23 160,25 30,11 -75,-1 -270,-30 z"
       id="path100"
       style="fill:#ff1616;fill-opacity:1;stroke-width:0.958259" />
    <path
       d="m 332,200 c 0,-14 2,-19 5,-12 2,6 2,18 0,25 -3,6 -5,1 -5,-13 z"
       id="path102"
       style="fill:#ff1616;fill-opacity:1;stroke-width:0.958259" />
    <path
       d="m 743,203 c 142,-2 372,-2 510,0 139,1 23,2 -258,2 -280,0 -394,-1 -252,-2 z"
       id="path104"
       style="fill:#ff1616;fill-opacity:1;stroke-width:0.958259" />
    <path
       d="m 1983,203 c 92,-2 242,-2 335,0 92,1 16,3 -168,3 -184,0 -260,-2 -167,-3 z"
       id="path106"
       style="fill:#ff1616;fill-opacity:1;stroke-width:0.958259" />
    <path
       d="m 1503,183 c 9,-2 25,-2 35,0 9,3 1,5 -18,5 -19,0 -27,-2 -17,-5 z"
       id="path108"
       style="fill:#ff1616;fill-opacity:1;stroke-width:0.958259" />
    <path
       d="m 1433,173 c 9,-2 25,-2 35,0 9,3 1,5 -18,5 -19,0 -27,-2 -17,-5 z"
       id="path110"
       style="fill:#ff1616;fill-opacity:1;stroke-width:0.958259" />
    <path
       d="m 1315,160 c -34,-6 -36,-7 -10,-8 17,0 48,3 70,7 33,7 35,9 10,8 -16,0 -48,-3 -70,-7 z"
       id="path112"
       style="fill:#ff1616;fill-opacity:1;stroke-width:0.958259" />
    <path
       d="m 341,134 c 0,-11 3,-14 6,-6 3,7 2,16 -1,19 -3,4 -6,-2 -5,-13 z"
       id="path114"
       style="fill:#ff1616;fill-opacity:1;stroke-width:0.958259" />
    <path
       d="m 1223,143 c 9,-2 25,-2 35,0 9,3 1,5 -18,5 -19,0 -27,-2 -17,-5 z"
       id="path116"
       style="fill:#ff1616;fill-opacity:1;stroke-width:0.958259" />
    <path
       d="m 1153,133 c 9,-2 25,-2 35,0 9,3 1,5 -18,5 -19,0 -27,-2 -17,-5 z"
       id="path118"
       style="fill:#ff1616;fill-opacity:1;stroke-width:0.958259" />
    <path
       d="m 1083,123 c 9,-2 25,-2 35,0 9,3 1,5 -18,5 -19,0 -27,-2 -17,-5 z"
       id="path120"
       style="fill:#ff1616;fill-opacity:1;stroke-width:0.958259" />
    <path
       d="m 1013,113 c 9,-2 23,-2 30,0 6,3 -1,5 -18,5 -16,0 -22,-2 -12,-5 z"
       id="path122"
       style="fill:#ff1616;fill-opacity:1;stroke-width:0.958259" />
    <path
       d="m 668,63 c 6,-2 18,-2 25,0 6,3 1,5 -13,5 -14,0 -19,-2 -12,-5 z"
       id="path124"
       style="fill:#ff1616;fill-opacity:1;stroke-width:0.958259" />
    <path
       d="m 598,53 c 6,-2 18,-2 25,0 6,3 1,5 -13,5 -14,0 -19,-2 -12,-5 z"
       id="path126"
       style="fill:#ff1616;fill-opacity:1;stroke-width:0.958259" />
    <path
       d="m 528,43 c 6,-2 18,-2 25,0 6,3 1,5 -13,5 -14,0 -19,-2 -12,-5 z"
       id="path128"
       style="fill:#ff1616;fill-opacity:1;stroke-width:0.958259" />
  </g>
</svg>
