<?xml version="1.0" encoding="UTF-8" standalone="no"?>
<svg
   version="1.0"
   width="270.000000pt"
   height="268.000000pt"
   viewBox="0 0 270.000000 268.000000"
   preserveAspectRatio="xMidYMid meet"
   id="svg132"
   sodipodi:docname="posts-_1_.svg"
   inkscape:version="1.2.1 (0f2f062aeb, 2022-09-21, custom)"
   xmlns:inkscape="http://www.inkscape.org/namespaces/inkscape"
   xmlns:sodipodi="http://sodipodi.sourceforge.net/DTD/sodipodi-0.dtd"
   xmlns="http://www.w3.org/2000/svg"
   xmlns:svg="http://www.w3.org/2000/svg">
  <defs
     id="defs136" />
  <sodipodi:namedview
     id="namedview134"
     pagecolor="#505050"
     bordercolor="#eeeeee"
     borderopacity="1"
     inkscape:showpageshadow="0"
     inkscape:pageopacity="0"
     inkscape:pagecheckerboard="0"
     inkscape:deskcolor="#505050"
     inkscape:document-units="pt"
     showgrid="false"
     inkscape:zoom="2.448694"
     inkscape:cx="180.096"
     inkscape:cy="179.07505"
     inkscape:window-width="1846"
     inkscape:window-height="1016"
     inkscape:window-x="827"
     inkscape:window-y="1107"
     inkscape:window-maximized="1"
     inkscape:current-layer="svg132" />
  <g
     transform="translate(0.000000,268.000000) scale(0.100000,-0.100000)"
     fill="#000000"
     stroke="none"
     id="g130"
     style="fill:#ff1616;fill-opacity:1">
    <path
       d="M2320 2664 c24 -4 30 -10 30 -32 0 -15 3 -37 6 -49 l6 -23 -353 1 c-195 1 -345 4 -334 6 11 3 119 20 240 38 121 18 211 33 199 34 -11 1 -148 -17 -305 -39 l-284 -40 -670 -2 -670 -3 570 -2 c313 -2 573 -7 577 -11 7 -7 -516 -86 -697 -106 -113 -13 -605 -92 -605 -98 0 -3 8 -4 17 -2 73 15 743 105 765 102 15 -3 29 -1 30 3 2 5 159 31 349 59 l346 50 411 0 c323 0 412 -3 412 -12 0 -10 2 -10 8 -1 4 6 23 13 42 16 l35 4 -37 1 c-39 2 -40 4 -51 92 -1 9 -15 16 -35 18 -32 2 -32 2 -2 -4z"
       id="path18"
       style="fill:#ff1616;fill-opacity:1" />
    <path
       d="M2223 2653 c9 -2 25 -2 35 0 9 3 1 5 -18 5 -19 0 -27 -2 -17 -5z"
       id="path20"
       style="fill:#ff1616;fill-opacity:1" />
    <path
       d="M2153 2643 c9 -2 25 -2 35 0 9 3 1 5 -18 5 -19 0 -27 -2 -17 -5z"
       id="path22"
       style="fill:#ff1616;fill-opacity:1" />
    <path
       d="M2483 2553 l37 -4 -1 -502 -1 -502 -36 245 c-20 135 -38 238 -39 230 -2 -8 15 -141 37 -294 l40 -279 0 -558 0 -558 -22 -4 -23 -4 23 -2 c21 -1 22 -4 22 -111 l0 -110 -1165 0 -1165 1 0 1101 c0 606 -2 1099 -5 1096 -6 -6 -7 -2199 -1 -2205 2 -2 133 -4 292 -4 189 0 282 -4 269 -10 -15 -7 -13 -8 10 -2 17 3 423 8 903 10 l872 4 0 122 c0 67 0 325 0 572 0 277 4 456 10 465 7 11 10 7 11 -20 0 -19 3 -29 6 -23 2 7 -1 43 -8 80 -9 48 -14 250 -18 668 l-6 600 -40 1 -40 1 38 -4z"
       id="path24"
       style="fill:#ff1616;fill-opacity:1" />
    <path
       d="M2372 2490 c0 -19 2 -27 5 -17 2 9 2 25 0 35 -3 9 -5 1 -5 -18z"
       id="path26"
       style="fill:#ff1616;fill-opacity:1" />
    <path
       d="M2382 2420 c0 -19 2 -27 5 -17 2 9 2 25 0 35 -3 9 -5 1 -5 -18z"
       id="path28"
       style="fill:#ff1616;fill-opacity:1" />
    <path
       d="M213 2433 c15 -2 37 -2 50 0 12 2 0 4 -28 4 -27 0 -38 -2 -22 -4z"
       id="path30"
       style="fill:#ff1616;fill-opacity:1" />
    <path
       d="M398 2433 c23 -2 61 -2 85 0 23 2 4 4 -43 4 -47 0 -66 -2 -42 -4z"
       id="path32"
       style="fill:#ff1616;fill-opacity:1" />
    <path
       d="M898 2433 c12 -2 30 -2 40 0 9 3 -1 5 -23 4 -22 0 -30 -2 -17 -4z"
       id="path34"
       style="fill:#ff1616;fill-opacity:1" />
    <path
       d="M1323 2433 c9 -2 23 -2 30 0 6 3 -1 5 -18 5 -16 0 -22 -2 -12 -5z"
       id="path36"
       style="fill:#ff1616;fill-opacity:1" />
    <path
       d="M2392 2350 c0 -19 2 -27 5 -17 2 9 2 25 0 35 -3 9 -5 1 -5 -18z"
       id="path38"
       style="fill:#ff1616;fill-opacity:1" />
    <path
       d="M2402 2280 c0 -19 2 -27 5 -17 2 9 2 25 0 35 -3 9 -5 1 -5 -18z"
       id="path40"
       style="fill:#ff1616;fill-opacity:1" />
    <path
       d="M2412 2210 c0 -19 2 -27 5 -17 2 9 2 25 0 35 -3 9 -5 1 -5 -18z"
       id="path42"
       style="fill:#ff1616;fill-opacity:1" />
    <path
       d="M2422 2140 c0 -19 2 -27 5 -17 2 9 2 25 0 35 -3 9 -5 1 -5 -18z"
       id="path44"
       style="fill:#ff1616;fill-opacity:1" />
    <path
       d="M2432 2070 c0 -19 2 -27 5 -17 2 9 2 25 0 35 -3 9 -5 1 -5 -18z"
       id="path46"
       style="fill:#ff1616;fill-opacity:1" />
    <path
       d="M2562 1160 c0 -19 2 -27 5 -17 2 9 2 25 0 35 -3 9 -5 1 -5 -18z"
       id="path48"
       style="fill:#ff1616;fill-opacity:1" />
    <path
       d="M2572 1090 c0 -19 2 -27 5 -17 2 9 2 25 0 35 -3 9 -5 1 -5 -18z"
       id="path50"
       style="fill:#ff1616;fill-opacity:1" />
    <path
       d="M2582 1020 c0 -19 2 -27 5 -17 2 9 2 25 0 35 -3 9 -5 1 -5 -18z"
       id="path52"
       style="fill:#ff1616;fill-opacity:1" />
    <path
       d="M2592 950 c0 -19 2 -27 5 -17 2 9 2 25 0 35 -3 9 -5 1 -5 -18z"
       id="path54"
       style="fill:#ff1616;fill-opacity:1" />
    <path
       d="M2602 880 c0 -19 2 -27 5 -17 2 9 2 25 0 35 -3 9 -5 1 -5 -18z"
       id="path56"
       style="fill:#ff1616;fill-opacity:1" />
    <path
       d="M2612 810 c0 -19 2 -27 5 -17 2 9 2 25 0 35 -3 9 -5 1 -5 -18z"
       id="path58"
       style="fill:#ff1616;fill-opacity:1" />
    <path
       d="M251 764 c0 -11 3 -14 6 -6 3 7 2 16 -1 19 -3 4 -6 -2 -5 -13z"
       id="path60"
       style="fill:#ff1616;fill-opacity:1" />
    <path
       d="M2622 745 c0 -16 2 -22 5 -12 2 9 2 23 0 30 -3 6 -5 -1 -5 -18z"
       id="path62"
       style="fill:#ff1616;fill-opacity:1" />
    <path
       d="M262 690 c0 -14 2 -19 5 -12 2 6 2 18 0 25 -3 6 -5 1 -5 -13z"
       id="path64"
       style="fill:#ff1616;fill-opacity:1" />
    <path
       d="M2632 675 c0 -16 2 -22 5 -12 2 9 2 23 0 30 -3 6 -5 -1 -5 -18z"
       id="path66"
       style="fill:#ff1616;fill-opacity:1" />
    <path
       d="M272 620 c0 -14 2 -19 5 -12 2 6 2 18 0 25 -3 6 -5 1 -5 -13z"
       id="path68"
       style="fill:#ff1616;fill-opacity:1" />
    <path
       d="M2642 600 c0 -14 2 -19 5 -12 2 6 2 18 0 25 -3 6 -5 1 -5 -13z"
       id="path70"
       style="fill:#ff1616;fill-opacity:1" />
    <path
       d="M282 550 c0 -14 2 -19 5 -12 2 6 2 18 0 25 -3 6 -5 1 -5 -13z"
       id="path72"
       style="fill:#ff1616;fill-opacity:1" />
    <path
       d="M2652 530 c0 -14 2 -19 5 -12 2 6 2 18 0 25 -3 6 -5 1 -5 -13z"
       id="path74"
       style="fill:#ff1616;fill-opacity:1" />
    <path
       d="M292 480 c0 -14 2 -19 5 -12 2 6 2 18 0 25 -3 6 -5 1 -5 -13z"
       id="path76"
       style="fill:#ff1616;fill-opacity:1" />
    <path
       d="M2662 460 c0 -14 2 -19 5 -12 2 6 2 18 0 25 -3 6 -5 1 -5 -13z"
       id="path78"
       style="fill:#ff1616;fill-opacity:1" />
    <path
       d="M302 410 c0 -14 2 -19 5 -12 2 6 2 18 0 25 -3 6 -5 1 -5 -13z"
       id="path80"
       style="fill:#ff1616;fill-opacity:1" />
    <path
       d="M2671 384 c0 -11 3 -14 6 -6 3 7 2 16 -1 19 -3 4 -6 -2 -5 -13z"
       id="path82"
       style="fill:#ff1616;fill-opacity:1" />
    <path
       d="M312 340 c0 -14 2 -19 5 -12 2 6 2 18 0 25 -3 6 -5 1 -5 -13z"
       id="path84"
       style="fill:#ff1616;fill-opacity:1" />
    <path
       d="M2613 343 c9 -2 25 -2 35 0 9 3 1 5 -18 5 -19 0 -27 -2 -17 -5z"
       id="path86"
       style="fill:#ff1616;fill-opacity:1" />
    <path
       d="M2558 333 c6 -2 18 -2 25 0 6 3 1 5 -13 5 -14 0 -19 -2 -12 -5z"
       id="path88"
       style="fill:#ff1616;fill-opacity:1" />
    <path
       d="M2418 313 c6 -2 18 -2 25 0 6 3 1 5 -13 5 -14 0 -19 -2 -12 -5z"
       id="path90"
       style="fill:#ff1616;fill-opacity:1" />
    <path
       d="M2348 303 c6 -2 18 -2 25 0 6 3 1 5 -13 5 -14 0 -19 -2 -12 -5z"
       id="path92"
       style="fill:#ff1616;fill-opacity:1" />
    <path
       d="M2278 293 c6 -2 18 -2 25 0 6 3 1 5 -13 5 -14 0 -19 -2 -12 -5z"
       id="path94"
       style="fill:#ff1616;fill-opacity:1" />
    <path
       d="M322 270 c0 -14 2 -19 5 -12 2 6 2 18 0 25 -3 6 -5 1 -5 -13z"
       id="path96"
       style="fill:#ff1616;fill-opacity:1" />
    <path
       d="M2203 283 c9 -2 25 -2 35 0 9 3 1 5 -18 5 -19 0 -27 -2 -17 -5z"
       id="path98"
       style="fill:#ff1616;fill-opacity:1" />
    <path
       d="M1905 245 c-121 -19 -256 -34 -300 -35 -60 -1 -74 -4 -57 -10 24 -10 190 2 272 20 25 5 113 19 195 30 83 12 155 23 160 25 30 11 -75 -1 -270 -30z"
       id="path100"
       style="fill:#ff1616;fill-opacity:1" />
    <path
       d="M332 200 c0 -14 2 -19 5 -12 2 6 2 18 0 25 -3 6 -5 1 -5 -13z"
       id="path102"
       style="fill:#ff1616;fill-opacity:1" />
    <path
       d="M743 203 c142 -2 372 -2 510 0 139 1 23 2 -258 2 -280 0 -394 -1 -252 -2z"
       id="path104"
       style="fill:#ff1616;fill-opacity:1" />
    <path
       d="M1983 203 c92 -2 242 -2 335 0 92 1 16 3 -168 3 -184 0 -260 -2 -167 -3z"
       id="path106"
       style="fill:#ff1616;fill-opacity:1" />
    <path
       d="M1503 183 c9 -2 25 -2 35 0 9 3 1 5 -18 5 -19 0 -27 -2 -17 -5z"
       id="path108"
       style="fill:#ff1616;fill-opacity:1" />
    <path
       d="M1433 173 c9 -2 25 -2 35 0 9 3 1 5 -18 5 -19 0 -27 -2 -17 -5z"
       id="path110"
       style="fill:#ff1616;fill-opacity:1" />
    <path
       d="M1315 160 c-34 -6 -36 -7 -10 -8 17 0 48 3 70 7 33 7 35 9 10 8 -16 0 -48 -3 -70 -7z"
       id="path112"
       style="fill:#ff1616;fill-opacity:1" />
    <path
       d="M341 134 c0 -11 3 -14 6 -6 3 7 2 16 -1 19 -3 4 -6 -2 -5 -13z"
       id="path114"
       style="fill:#ff1616;fill-opacity:1" />
    <path
       d="M1223 143 c9 -2 25 -2 35 0 9 3 1 5 -18 5 -19 0 -27 -2 -17 -5z"
       id="path116"
       style="fill:#ff1616;fill-opacity:1" />
    <path
       d="M1153 133 c9 -2 25 -2 35 0 9 3 1 5 -18 5 -19 0 -27 -2 -17 -5z"
       id="path118"
       style="fill:#ff1616;fill-opacity:1" />
    <path
       d="M1083 123 c9 -2 25 -2 35 0 9 3 1 5 -18 5 -19 0 -27 -2 -17 -5z"
       id="path120"
       style="fill:#ff1616;fill-opacity:1" />
    <path
       d="M1013 113 c9 -2 23 -2 30 0 6 3 -1 5 -18 5 -16 0 -22 -2 -12 -5z"
       id="path122"
       style="fill:#ff1616;fill-opacity:1" />
    <path
       d="M668 63 c6 -2 18 -2 25 0 6 3 1 5 -13 5 -14 0 -19 -2 -12 -5z"
       id="path124"
       style="fill:#ff1616;fill-opacity:1" />
    <path
       d="M598 53 c6 -2 18 -2 25 0 6 3 1 5 -13 5 -14 0 -19 -2 -12 -5z"
       id="path126"
       style="fill:#ff1616;fill-opacity:1" />
    <path
       d="M528 43 c6 -2 18 -2 25 0 6 3 1 5 -13 5 -14 0 -19 -2 -12 -5z"
       id="path128"
       style="fill:#ff1616;fill-opacity:1" />
  </g>
</svg>
