<?xml version="1.0" encoding="UTF-8" standalone="no"?>
<svg
   version="1.0"
   width="1200.000000pt"
   height="1200.000000pt"
   viewBox="0 0 1200.000000 1200.000000"
   preserveAspectRatio="xMidYMid meet"
   id="svg22"
   sodipodi:docname="profile.svg"
   inkscape:version="1.2.1 (0f2f062aeb, 2022-09-21, custom)"
   xmlns:inkscape="http://www.inkscape.org/namespaces/inkscape"
   xmlns:sodipodi="http://sodipodi.sourceforge.net/DTD/sodipodi-0.dtd"
   xmlns="http://www.w3.org/2000/svg"
   xmlns:svg="http://www.w3.org/2000/svg">
  <defs
     id="defs26" />
  <sodipodi:namedview
     id="namedview24"
     pagecolor="#505050"
     bordercolor="#eeeeee"
     borderopacity="1"
     inkscape:showpageshadow="0"
     inkscape:pageopacity="0"
     inkscape:pagecheckerboard="0"
     inkscape:deskcolor="#505050"
     inkscape:document-units="pt"
     showgrid="false"
     inkscape:zoom="0.546875"
     inkscape:cx="800.91429"
     inkscape:cy="800"
     inkscape:window-width="1846"
     inkscape:window-height="1016"
     inkscape:window-x="827"
     inkscape:window-y="1107"
     inkscape:window-maximized="1"
     inkscape:current-layer="svg22" />
  <g
     transform="translate(0.000000,1200.000000) scale(0.100000,-0.100000)"
     fill="#000000"
     stroke="none"
     id="g20"
     style="fill:#233dff;fill-opacity:1">
    <path
       d="M5765 11993 c-151 -5 -450 -34 -624 -59 -885 -127 -1724 -448 -2466 -943 -1823 -1216 -2833 -3314 -2649 -5501 85 -1006 423 -1975 985 -2817 814 -1223 2063 -2110 3482 -2478 812 -209 1666 -247 2495 -110 835 138 1627 452 2342 927 997 664 1800 1654 2237 2758 292 739 426 1439 426 2230 0 341 -14 549 -59 860 -156 1089 -618 2129 -1323 2975 -234 280 -526 571 -801 796 -1144 938 -2563 1416 -4045 1362z m535 -1487 c519 -65 978 -294 1365 -681 345 -345 603 -798 738 -1295 58 -213 107 -527 107 -686 l0 -71 54 -57 c99 -105 136 -205 136 -367 0 -214 -90 -446 -288 -739 -69 -103 -91 -146 -124 -240 -160 -464 -390 -895 -657 -1230 -99 -125 -296 -330 -390 -405 l-58 -48 14 -66 c112 -504 465 -894 1042 -1152 139 -62 324 -125 731 -249 179 -54 379 -118 444 -140 129 -44 276 -108 276 -120 0 -13 -237 -237 -340 -321 -276 -224 -531 -383 -895 -560 -610 -296 -1248 -478 -1955 -556 -205 -22 -774 -25 -970 -5 -911 95 -1779 386 -2474 830 -158 101 -328 229 -479 362 -115 100 -267 255 -267 271 0 19 254 106 740 254 511 155 652 204 815 285 440 217 725 512 885 914 29 73 80 259 80 290 0 9 -67 82 -148 163 -167 167 -260 280 -395 479 -168 249 -314 525 -424 803 -49 124 -65 155 -111 206 -195 217 -349 480 -418 713 -35 116 -44 297 -20 392 31 123 89 210 187 282 33 23 59 50 59 59 0 37 21 230 36 324 80 522 292 1017 614 1435 90 117 325 353 440 442 354 273 753 441 1160 487 122 14 367 12 490 -3z"
       id="path18"
       style="fill:#233dff;fill-opacity:1" />
  </g>
</svg>
